<mxfile host="app.diagrams.net" agent="Mozilla/5.0 (Windows NT 10.0; Win64; x64) AppleWebKit/537.36 (KHTML, like Gecko) Chrome/133.0.0.0 Safari/537.36" version="26.0.15">
  <diagram id="C5RBs43oDa-KdzZeNtuy" name="Page-1">
    <mxGraphModel dx="2547" dy="696" grid="1" gridSize="10" guides="1" tooltips="1" connect="1" arrows="1" fold="1" page="1" pageScale="1" pageWidth="827" pageHeight="1169" math="0" shadow="0">
      <root>
        <mxCell id="WIyWlLk6GJQsqaUBKTNV-0" />
        <mxCell id="WIyWlLk6GJQsqaUBKTNV-1" parent="WIyWlLk6GJQsqaUBKTNV-0" />
        <mxCell id="RzAZ1FQXElwhh7SouEmg-1" value="&lt;i&gt;Con người&lt;/i&gt;" style="swimlane;fontStyle=1;align=center;verticalAlign=top;childLayout=stackLayout;horizontal=1;startSize=20;horizontalStack=0;resizeParent=1;resizeParentMax=0;resizeLast=0;collapsible=1;marginBottom=0;whiteSpace=wrap;html=1;" parent="WIyWlLk6GJQsqaUBKTNV-1" vertex="1">
          <mxGeometry x="350" y="10" width="160" height="240" as="geometry" />
        </mxCell>
        <mxCell id="RzAZ1FQXElwhh7SouEmg-2" value="- Ten: string&lt;div&gt;-SDT:string&lt;br&gt;&lt;div&gt;&lt;br&gt;&lt;/div&gt;&lt;/div&gt;" style="text;strokeColor=none;fillColor=none;align=left;verticalAlign=top;spacingLeft=4;spacingRight=4;overflow=hidden;rotatable=0;points=[[0,0.5],[1,0.5]];portConstraint=eastwest;whiteSpace=wrap;html=1;" parent="RzAZ1FQXElwhh7SouEmg-1" vertex="1">
          <mxGeometry y="20" width="160" height="80" as="geometry" />
        </mxCell>
        <mxCell id="RzAZ1FQXElwhh7SouEmg-3" value="" style="line;strokeWidth=1;fillColor=none;align=left;verticalAlign=middle;spacingTop=-1;spacingLeft=3;spacingRight=3;rotatable=0;labelPosition=right;points=[];portConstraint=eastwest;strokeColor=inherit;" parent="RzAZ1FQXElwhh7SouEmg-1" vertex="1">
          <mxGeometry y="100" width="160" height="8" as="geometry" />
        </mxCell>
        <mxCell id="RzAZ1FQXElwhh7SouEmg-4" value="+ method(type): type&lt;div&gt;+getTen(string name): string&lt;/div&gt;&lt;div&gt;+setTen(): void&lt;/div&gt;&lt;div&gt;+ConNguoi()&lt;/div&gt;&lt;div&gt;+getSDT(string sdt): String&lt;/div&gt;&lt;div&gt;+HienThiTT() :void&lt;/div&gt;" style="text;strokeColor=none;fillColor=none;align=left;verticalAlign=top;spacingLeft=4;spacingRight=4;overflow=hidden;rotatable=0;points=[[0,0.5],[1,0.5]];portConstraint=eastwest;whiteSpace=wrap;html=1;" parent="RzAZ1FQXElwhh7SouEmg-1" vertex="1">
          <mxGeometry y="108" width="160" height="132" as="geometry" />
        </mxCell>
        <mxCell id="RzAZ1FQXElwhh7SouEmg-5" value="&lt;i&gt;Nhân Viên&lt;/i&gt;&lt;div&gt;&lt;br&gt;&lt;/div&gt;" style="swimlane;fontStyle=1;align=center;verticalAlign=top;childLayout=stackLayout;horizontal=1;startSize=26;horizontalStack=0;resizeParent=1;resizeParentMax=0;resizeLast=0;collapsible=1;marginBottom=0;whiteSpace=wrap;html=1;" parent="WIyWlLk6GJQsqaUBKTNV-1" vertex="1">
          <mxGeometry x="80" y="360" width="160" height="240" as="geometry" />
        </mxCell>
        <mxCell id="RzAZ1FQXElwhh7SouEmg-6" value="- ID_NV: string&lt;div&gt;-TaiKhoan:TaiKhoan&lt;/div&gt;" style="text;strokeColor=none;fillColor=none;align=left;verticalAlign=top;spacingLeft=4;spacingRight=4;overflow=hidden;rotatable=0;points=[[0,0.5],[1,0.5]];portConstraint=eastwest;whiteSpace=wrap;html=1;" parent="RzAZ1FQXElwhh7SouEmg-5" vertex="1">
          <mxGeometry y="26" width="160" height="64" as="geometry" />
        </mxCell>
        <mxCell id="RzAZ1FQXElwhh7SouEmg-7" value="" style="line;strokeWidth=1;fillColor=none;align=left;verticalAlign=middle;spacingTop=-1;spacingLeft=3;spacingRight=3;rotatable=0;labelPosition=right;points=[];portConstraint=eastwest;strokeColor=inherit;" parent="RzAZ1FQXElwhh7SouEmg-5" vertex="1">
          <mxGeometry y="90" width="160" height="80" as="geometry" />
        </mxCell>
        <mxCell id="DLRbKpXfFb9seyz2tW-k-34" value="+GetIDNV():void&lt;div&gt;+SetIDNV():void&lt;/div&gt;&lt;div&gt;+DangNhap():void&lt;/div&gt;&lt;div&gt;+DangXuat():void&lt;/div&gt;" style="text;html=1;align=center;verticalAlign=middle;resizable=0;points=[];autosize=1;strokeColor=none;fillColor=none;" parent="RzAZ1FQXElwhh7SouEmg-5" vertex="1">
          <mxGeometry y="170" width="160" height="70" as="geometry" />
        </mxCell>
        <mxCell id="RzAZ1FQXElwhh7SouEmg-9" value="Khách Hàng&lt;div&gt;&lt;br&gt;&lt;/div&gt;" style="swimlane;fontStyle=1;align=center;verticalAlign=top;childLayout=stackLayout;horizontal=1;startSize=26;horizontalStack=0;resizeParent=1;resizeParentMax=0;resizeLast=0;collapsible=1;marginBottom=0;whiteSpace=wrap;html=1;" parent="WIyWlLk6GJQsqaUBKTNV-1" vertex="1">
          <mxGeometry x="470" y="360" width="160" height="90" as="geometry" />
        </mxCell>
        <mxCell id="RzAZ1FQXElwhh7SouEmg-11" value="" style="line;strokeWidth=1;fillColor=none;align=left;verticalAlign=middle;spacingTop=-1;spacingLeft=3;spacingRight=3;rotatable=0;labelPosition=right;points=[];portConstraint=eastwest;strokeColor=inherit;" parent="RzAZ1FQXElwhh7SouEmg-9" vertex="1">
          <mxGeometry y="26" width="160" height="8" as="geometry" />
        </mxCell>
        <mxCell id="RzAZ1FQXElwhh7SouEmg-10" value="-ID_KH:string&lt;div&gt;-TieuPhi:double&lt;/div&gt;&lt;div&gt;-LuotMua:int&lt;/div&gt;" style="text;strokeColor=none;fillColor=none;align=left;verticalAlign=top;spacingLeft=4;spacingRight=4;overflow=hidden;rotatable=0;points=[[0,0.5],[1,0.5]];portConstraint=eastwest;whiteSpace=wrap;html=1;" parent="RzAZ1FQXElwhh7SouEmg-9" vertex="1">
          <mxGeometry y="34" width="160" height="56" as="geometry" />
        </mxCell>
        <mxCell id="RzAZ1FQXElwhh7SouEmg-13" value="Extends" style="endArrow=block;endSize=16;endFill=0;html=1;rounded=0;exitX=1;exitY=0;exitDx=0;exitDy=0;entryX=0.294;entryY=0.992;entryDx=0;entryDy=0;entryPerimeter=0;" parent="WIyWlLk6GJQsqaUBKTNV-1" source="RzAZ1FQXElwhh7SouEmg-5" target="RzAZ1FQXElwhh7SouEmg-4" edge="1">
          <mxGeometry width="160" relative="1" as="geometry">
            <mxPoint x="220" y="320" as="sourcePoint" />
            <mxPoint x="380" y="320" as="targetPoint" />
            <Array as="points">
              <mxPoint x="400" y="360" />
            </Array>
          </mxGeometry>
        </mxCell>
        <mxCell id="RzAZ1FQXElwhh7SouEmg-15" value="Extends" style="endArrow=block;endSize=16;endFill=0;html=1;rounded=0;entryX=0.969;entryY=1.03;entryDx=0;entryDy=0;entryPerimeter=0;" parent="WIyWlLk6GJQsqaUBKTNV-1" target="RzAZ1FQXElwhh7SouEmg-4" edge="1">
          <mxGeometry width="160" relative="1" as="geometry">
            <mxPoint x="505" y="350" as="sourcePoint" />
            <mxPoint x="380" y="320" as="targetPoint" />
          </mxGeometry>
        </mxCell>
        <mxCell id="RzAZ1FQXElwhh7SouEmg-16" value="Nhân viên kho&lt;div&gt;&lt;br&gt;&lt;/div&gt;" style="swimlane;fontStyle=1;align=center;verticalAlign=top;childLayout=stackLayout;horizontal=1;startSize=26;horizontalStack=0;resizeParent=1;resizeParentMax=0;resizeLast=0;collapsible=1;marginBottom=0;whiteSpace=wrap;html=1;" parent="WIyWlLk6GJQsqaUBKTNV-1" vertex="1">
          <mxGeometry x="-200" y="650" width="160" height="110" as="geometry" />
        </mxCell>
        <mxCell id="RzAZ1FQXElwhh7SouEmg-17" value="-ID_NVKho:string&lt;div&gt;&lt;br&gt;&lt;/div&gt;" style="text;strokeColor=none;fillColor=none;align=left;verticalAlign=top;spacingLeft=4;spacingRight=4;overflow=hidden;rotatable=0;points=[[0,0.5],[1,0.5]];portConstraint=eastwest;whiteSpace=wrap;html=1;" parent="RzAZ1FQXElwhh7SouEmg-16" vertex="1">
          <mxGeometry y="26" width="160" height="26" as="geometry" />
        </mxCell>
        <mxCell id="RzAZ1FQXElwhh7SouEmg-18" value="" style="line;strokeWidth=1;fillColor=none;align=left;verticalAlign=middle;spacingTop=-1;spacingLeft=3;spacingRight=3;rotatable=0;labelPosition=right;points=[];portConstraint=eastwest;strokeColor=inherit;" parent="RzAZ1FQXElwhh7SouEmg-16" vertex="1">
          <mxGeometry y="52" width="160" height="8" as="geometry" />
        </mxCell>
        <mxCell id="RzAZ1FQXElwhh7SouEmg-19" value="+GetID_NVKho():string&lt;div&gt;+SetID_NVKho():void&lt;/div&gt;" style="text;strokeColor=none;fillColor=none;align=left;verticalAlign=top;spacingLeft=4;spacingRight=4;overflow=hidden;rotatable=0;points=[[0,0.5],[1,0.5]];portConstraint=eastwest;whiteSpace=wrap;html=1;" parent="RzAZ1FQXElwhh7SouEmg-16" vertex="1">
          <mxGeometry y="60" width="160" height="50" as="geometry" />
        </mxCell>
        <mxCell id="RzAZ1FQXElwhh7SouEmg-20" value="Nhân viên bán hàng&lt;div&gt;&lt;br&gt;&lt;/div&gt;" style="swimlane;fontStyle=1;align=center;verticalAlign=top;childLayout=stackLayout;horizontal=1;startSize=26;horizontalStack=0;resizeParent=1;resizeParentMax=0;resizeLast=0;collapsible=1;marginBottom=0;whiteSpace=wrap;html=1;" parent="WIyWlLk6GJQsqaUBKTNV-1" vertex="1">
          <mxGeometry x="240" y="670" width="160" height="90" as="geometry" />
        </mxCell>
        <mxCell id="RzAZ1FQXElwhh7SouEmg-22" value="" style="line;strokeWidth=1;fillColor=none;align=left;verticalAlign=middle;spacingTop=-1;spacingLeft=3;spacingRight=3;rotatable=0;labelPosition=right;points=[];portConstraint=eastwest;strokeColor=inherit;" parent="RzAZ1FQXElwhh7SouEmg-20" vertex="1">
          <mxGeometry y="26" width="160" height="8" as="geometry" />
        </mxCell>
        <mxCell id="RzAZ1FQXElwhh7SouEmg-21" value="manageHD:void()&lt;div&gt;xuatHoaDon():void&lt;/div&gt;" style="text;strokeColor=none;fillColor=none;align=left;verticalAlign=top;spacingLeft=4;spacingRight=4;overflow=hidden;rotatable=0;points=[[0,0.5],[1,0.5]];portConstraint=eastwest;whiteSpace=wrap;html=1;" parent="RzAZ1FQXElwhh7SouEmg-20" vertex="1">
          <mxGeometry y="34" width="160" height="56" as="geometry" />
        </mxCell>
        <mxCell id="RzAZ1FQXElwhh7SouEmg-24" value="Bộ phận quản lý kho(I)" style="swimlane;fontStyle=1;align=center;verticalAlign=top;childLayout=stackLayout;horizontal=1;startSize=26;horizontalStack=0;resizeParent=1;resizeParentMax=0;resizeLast=0;collapsible=1;marginBottom=0;whiteSpace=wrap;html=1;" parent="WIyWlLk6GJQsqaUBKTNV-1" vertex="1">
          <mxGeometry x="-330" y="180" width="160" height="210" as="geometry" />
        </mxCell>
        <mxCell id="RzAZ1FQXElwhh7SouEmg-26" value="" style="line;strokeWidth=1;fillColor=none;align=left;verticalAlign=middle;spacingTop=-1;spacingLeft=3;spacingRight=3;rotatable=0;labelPosition=right;points=[];portConstraint=eastwest;strokeColor=inherit;" parent="RzAZ1FQXElwhh7SouEmg-24" vertex="1">
          <mxGeometry y="26" width="160" height="8" as="geometry" />
        </mxCell>
        <mxCell id="RzAZ1FQXElwhh7SouEmg-27" value="+ AddNH(): void&lt;div&gt;+ AddXH(): void&lt;/div&gt;&lt;div&gt;+DeleteNH():void&lt;/div&gt;&lt;div&gt;+DeleteXH():void&lt;/div&gt;&lt;div&gt;+ViewNH():void&lt;/div&gt;&lt;div&gt;+ViewXH():void&lt;/div&gt;&lt;div&gt;+UpdateNH():void&lt;/div&gt;&lt;div&gt;+UpdateXH():void&lt;/div&gt;&lt;div&gt;&lt;br&gt;&lt;/div&gt;" style="text;strokeColor=none;fillColor=none;align=left;verticalAlign=top;spacingLeft=4;spacingRight=4;overflow=hidden;rotatable=0;points=[[0,0.5],[1,0.5]];portConstraint=eastwest;whiteSpace=wrap;html=1;" parent="RzAZ1FQXElwhh7SouEmg-24" vertex="1">
          <mxGeometry y="34" width="160" height="176" as="geometry" />
        </mxCell>
        <mxCell id="RzAZ1FQXElwhh7SouEmg-28" value="Chủ Quán&lt;div&gt;&lt;br&gt;&lt;/div&gt;" style="swimlane;fontStyle=1;align=center;verticalAlign=top;childLayout=stackLayout;horizontal=1;startSize=26;horizontalStack=0;resizeParent=1;resizeParentMax=0;resizeLast=0;collapsible=1;marginBottom=0;whiteSpace=wrap;html=1;" parent="WIyWlLk6GJQsqaUBKTNV-1" vertex="1">
          <mxGeometry x="40" y="100" width="160" height="160" as="geometry" />
        </mxCell>
        <mxCell id="RzAZ1FQXElwhh7SouEmg-29" value="+ field: type" style="text;strokeColor=none;fillColor=none;align=left;verticalAlign=top;spacingLeft=4;spacingRight=4;overflow=hidden;rotatable=0;points=[[0,0.5],[1,0.5]];portConstraint=eastwest;whiteSpace=wrap;html=1;" parent="RzAZ1FQXElwhh7SouEmg-28" vertex="1">
          <mxGeometry y="26" width="160" height="26" as="geometry" />
        </mxCell>
        <mxCell id="RzAZ1FQXElwhh7SouEmg-30" value="" style="line;strokeWidth=1;fillColor=none;align=left;verticalAlign=middle;spacingTop=-1;spacingLeft=3;spacingRight=3;rotatable=0;labelPosition=right;points=[];portConstraint=eastwest;strokeColor=inherit;" parent="RzAZ1FQXElwhh7SouEmg-28" vertex="1">
          <mxGeometry y="52" width="160" height="8" as="geometry" />
        </mxCell>
        <mxCell id="RzAZ1FQXElwhh7SouEmg-31" value="+ CreateKho(): void&lt;div&gt;+ManageSP():void&lt;/div&gt;&lt;div&gt;+ManageNV():void&lt;/div&gt;&lt;div&gt;+ManageKM():void&lt;/div&gt;&lt;div&gt;+manageTK():void&lt;/div&gt;&lt;div&gt;+ThongKe():void&lt;/div&gt;&lt;div&gt;&lt;br&gt;&lt;/div&gt;" style="text;strokeColor=none;fillColor=none;align=left;verticalAlign=top;spacingLeft=4;spacingRight=4;overflow=hidden;rotatable=0;points=[[0,0.5],[1,0.5]];portConstraint=eastwest;whiteSpace=wrap;html=1;" parent="RzAZ1FQXElwhh7SouEmg-28" vertex="1">
          <mxGeometry y="60" width="160" height="100" as="geometry" />
        </mxCell>
        <mxCell id="RzAZ1FQXElwhh7SouEmg-33" value="Extends" style="endArrow=block;endSize=16;endFill=0;html=1;rounded=0;entryX=0.75;entryY=0;entryDx=0;entryDy=0;" parent="WIyWlLk6GJQsqaUBKTNV-1" target="RzAZ1FQXElwhh7SouEmg-5" edge="1">
          <mxGeometry width="160" relative="1" as="geometry">
            <mxPoint x="200" y="260" as="sourcePoint" />
            <mxPoint x="350" y="130" as="targetPoint" />
          </mxGeometry>
        </mxCell>
        <mxCell id="RzAZ1FQXElwhh7SouEmg-37" value="Extends" style="endArrow=block;endSize=16;endFill=0;html=1;rounded=0;exitX=-0.003;exitY=0.119;exitDx=0;exitDy=0;exitPerimeter=0;" parent="WIyWlLk6GJQsqaUBKTNV-1" source="RzAZ1FQXElwhh7SouEmg-20" edge="1">
          <mxGeometry width="160" relative="1" as="geometry">
            <mxPoint x="341.67999999999984" y="489.74199999999996" as="sourcePoint" />
            <mxPoint x="240" y="600" as="targetPoint" />
          </mxGeometry>
        </mxCell>
        <mxCell id="RzAZ1FQXElwhh7SouEmg-38" value="" style="endArrow=block;dashed=1;endFill=0;endSize=12;html=1;rounded=0;exitX=0.031;exitY=0.192;exitDx=0;exitDy=0;exitPerimeter=0;entryX=0.231;entryY=1.023;entryDx=0;entryDy=0;entryPerimeter=0;" parent="WIyWlLk6GJQsqaUBKTNV-1" source="RzAZ1FQXElwhh7SouEmg-17" target="RzAZ1FQXElwhh7SouEmg-27" edge="1">
          <mxGeometry width="160" relative="1" as="geometry">
            <mxPoint x="-30" y="340" as="sourcePoint" />
            <mxPoint x="130" y="340" as="targetPoint" />
            <Array as="points">
              <mxPoint x="-290" y="680" />
            </Array>
          </mxGeometry>
        </mxCell>
        <mxCell id="RzAZ1FQXElwhh7SouEmg-36" value="Extends" style="endArrow=block;endSize=16;endFill=0;html=1;rounded=0;exitX=1;exitY=0;exitDx=0;exitDy=0;" parent="WIyWlLk6GJQsqaUBKTNV-1" source="RzAZ1FQXElwhh7SouEmg-16" edge="1">
          <mxGeometry width="160" relative="1" as="geometry">
            <mxPoint x="20" y="490" as="sourcePoint" />
            <mxPoint x="85" y="600" as="targetPoint" />
            <Array as="points">
              <mxPoint x="85" y="650" />
            </Array>
          </mxGeometry>
        </mxCell>
        <mxCell id="RzAZ1FQXElwhh7SouEmg-39" value="" style="endArrow=block;dashed=1;endFill=0;endSize=12;html=1;rounded=0;exitX=0;exitY=0.5;exitDx=0;exitDy=0;entryX=0.825;entryY=0.019;entryDx=0;entryDy=0;entryPerimeter=0;" parent="WIyWlLk6GJQsqaUBKTNV-1" source="RzAZ1FQXElwhh7SouEmg-29" target="RzAZ1FQXElwhh7SouEmg-24" edge="1">
          <mxGeometry width="160" relative="1" as="geometry">
            <mxPoint x="-30" y="340" as="sourcePoint" />
            <mxPoint x="130" y="340" as="targetPoint" />
            <Array as="points">
              <mxPoint x="-200" y="140" />
            </Array>
          </mxGeometry>
        </mxCell>
        <mxCell id="RzAZ1FQXElwhh7SouEmg-40" value="Bộ phận Quản lý Khách hàng (I)" style="swimlane;fontStyle=1;align=center;verticalAlign=top;childLayout=stackLayout;horizontal=1;startSize=60;horizontalStack=0;resizeParent=1;resizeParentMax=0;resizeLast=0;collapsible=1;marginBottom=0;whiteSpace=wrap;html=1;" parent="WIyWlLk6GJQsqaUBKTNV-1" vertex="1">
          <mxGeometry x="470" y="630" width="160" height="150" as="geometry" />
        </mxCell>
        <mxCell id="RzAZ1FQXElwhh7SouEmg-42" value="" style="line;strokeWidth=1;fillColor=none;align=left;verticalAlign=middle;spacingTop=-1;spacingLeft=3;spacingRight=3;rotatable=0;labelPosition=right;points=[];portConstraint=eastwest;strokeColor=inherit;" parent="RzAZ1FQXElwhh7SouEmg-40" vertex="1">
          <mxGeometry y="60" width="160" height="8" as="geometry" />
        </mxCell>
        <mxCell id="RzAZ1FQXElwhh7SouEmg-43" value="&lt;div&gt;+ AddKH(): void&lt;/div&gt;&lt;div&gt;+DeleteKH():void&lt;/div&gt;&lt;div&gt;+ViewKH():void&lt;/div&gt;&lt;div&gt;+UpdateKH():void&lt;/div&gt;&lt;div&gt;&lt;br&gt;&lt;/div&gt;" style="text;strokeColor=none;fillColor=none;align=left;verticalAlign=top;spacingLeft=4;spacingRight=4;overflow=hidden;rotatable=0;points=[[0,0.5],[1,0.5]];portConstraint=eastwest;whiteSpace=wrap;html=1;" parent="RzAZ1FQXElwhh7SouEmg-40" vertex="1">
          <mxGeometry y="68" width="160" height="82" as="geometry" />
        </mxCell>
        <mxCell id="RzAZ1FQXElwhh7SouEmg-44" value="" style="endArrow=block;dashed=1;endFill=0;endSize=12;html=1;rounded=0;entryX=-0.006;entryY=0.113;entryDx=0;entryDy=0;entryPerimeter=0;exitX=1.013;exitY=0.68;exitDx=0;exitDy=0;exitPerimeter=0;" parent="WIyWlLk6GJQsqaUBKTNV-1" source="RzAZ1FQXElwhh7SouEmg-31" target="RzAZ1FQXElwhh7SouEmg-40" edge="1">
          <mxGeometry width="160" relative="1" as="geometry">
            <mxPoint x="130" y="330" as="sourcePoint" />
            <mxPoint x="290" y="330" as="targetPoint" />
            <Array as="points">
              <mxPoint x="280" y="230" />
              <mxPoint x="280" y="480" />
              <mxPoint x="280" y="647" />
            </Array>
          </mxGeometry>
        </mxCell>
        <mxCell id="RzAZ1FQXElwhh7SouEmg-51" value="" style="endArrow=block;dashed=1;endFill=0;endSize=12;html=1;rounded=0;exitX=0.994;exitY=-0.038;exitDx=0;exitDy=0;exitPerimeter=0;entryX=0.006;entryY=0.073;entryDx=0;entryDy=0;entryPerimeter=0;" parent="WIyWlLk6GJQsqaUBKTNV-1" source="RzAZ1FQXElwhh7SouEmg-21" target="RzAZ1FQXElwhh7SouEmg-43" edge="1">
          <mxGeometry width="160" relative="1" as="geometry">
            <mxPoint x="350" y="530" as="sourcePoint" />
            <mxPoint x="510" y="530" as="targetPoint" />
          </mxGeometry>
        </mxCell>
        <mxCell id="RzAZ1FQXElwhh7SouEmg-57" value="" style="endArrow=block;startArrow=block;endFill=1;startFill=1;html=1;rounded=0;exitX=1;exitY=0.5;exitDx=0;exitDy=0;entryX=0;entryY=0.5;entryDx=0;entryDy=0;" parent="WIyWlLk6GJQsqaUBKTNV-1" target="RzAZ1FQXElwhh7SouEmg-6" edge="1" source="p7wuB7c4HEwAIhUUmAOL-4">
          <mxGeometry width="160" relative="1" as="geometry">
            <mxPoint x="10" y="433" as="sourcePoint" />
            <mxPoint x="290" y="330" as="targetPoint" />
          </mxGeometry>
        </mxCell>
        <mxCell id="RzAZ1FQXElwhh7SouEmg-58" value="1" style="edgeLabel;html=1;align=center;verticalAlign=middle;resizable=0;points=[];" parent="RzAZ1FQXElwhh7SouEmg-57" vertex="1" connectable="0">
          <mxGeometry x="-0.3048" y="2" relative="1" as="geometry">
            <mxPoint x="-24" y="24" as="offset" />
          </mxGeometry>
        </mxCell>
        <mxCell id="RzAZ1FQXElwhh7SouEmg-59" value="1" style="edgeLabel;html=1;align=center;verticalAlign=middle;resizable=0;points=[];" parent="RzAZ1FQXElwhh7SouEmg-57" vertex="1" connectable="0">
          <mxGeometry x="0.5524" y="2" relative="1" as="geometry">
            <mxPoint x="-1" y="1" as="offset" />
          </mxGeometry>
        </mxCell>
        <mxCell id="DLRbKpXfFb9seyz2tW-k-0" value="Hóa đơn&lt;div&gt;&lt;br&gt;&lt;/div&gt;" style="swimlane;fontStyle=1;align=center;verticalAlign=top;childLayout=stackLayout;horizontal=1;startSize=26;horizontalStack=0;resizeParent=1;resizeParentMax=0;resizeLast=0;collapsible=1;marginBottom=0;whiteSpace=wrap;html=1;" parent="WIyWlLk6GJQsqaUBKTNV-1" vertex="1">
          <mxGeometry x="-60" y="820" width="220" height="154" as="geometry" />
        </mxCell>
        <mxCell id="DLRbKpXfFb9seyz2tW-k-1" value="&lt;div&gt;- ID_HD&lt;/div&gt;- TongTien: double&lt;div&gt;-DanhSachSP:List&amp;lt;ChiTienPhieu&lt;/div&gt;&lt;div&gt;&amp;gt;&lt;/div&gt;&lt;div&gt;-Ngay:Date&lt;/div&gt;" style="text;strokeColor=none;fillColor=none;align=left;verticalAlign=top;spacingLeft=4;spacingRight=4;overflow=hidden;rotatable=0;points=[[0,0.5],[1,0.5]];portConstraint=eastwest;whiteSpace=wrap;html=1;" parent="DLRbKpXfFb9seyz2tW-k-0" vertex="1">
          <mxGeometry y="26" width="220" height="94" as="geometry" />
        </mxCell>
        <mxCell id="DLRbKpXfFb9seyz2tW-k-2" value="" style="line;strokeWidth=1;fillColor=none;align=left;verticalAlign=middle;spacingTop=-1;spacingLeft=3;spacingRight=3;rotatable=0;labelPosition=right;points=[];portConstraint=eastwest;strokeColor=inherit;" parent="DLRbKpXfFb9seyz2tW-k-0" vertex="1">
          <mxGeometry y="120" width="220" height="8" as="geometry" />
        </mxCell>
        <mxCell id="DLRbKpXfFb9seyz2tW-k-3" value="+ TinhTongTien(): void&lt;div&gt;&lt;br&gt;&lt;/div&gt;" style="text;strokeColor=none;fillColor=none;align=left;verticalAlign=top;spacingLeft=4;spacingRight=4;overflow=hidden;rotatable=0;points=[[0,0.5],[1,0.5]];portConstraint=eastwest;whiteSpace=wrap;html=1;" parent="DLRbKpXfFb9seyz2tW-k-0" vertex="1">
          <mxGeometry y="128" width="220" height="26" as="geometry" />
        </mxCell>
        <mxCell id="DLRbKpXfFb9seyz2tW-k-4" value="Use" style="endArrow=open;endSize=12;dashed=1;html=1;rounded=0;entryX=0.445;entryY=0;entryDx=0;entryDy=0;exitX=0;exitY=0.5;exitDx=0;exitDy=0;entryPerimeter=0;" parent="WIyWlLk6GJQsqaUBKTNV-1" source="RzAZ1FQXElwhh7SouEmg-21" target="DLRbKpXfFb9seyz2tW-k-0" edge="1">
          <mxGeometry width="160" relative="1" as="geometry">
            <mxPoint x="360" y="690" as="sourcePoint" />
            <mxPoint x="520" y="690" as="targetPoint" />
            <Array as="points">
              <mxPoint x="35" y="730" />
            </Array>
          </mxGeometry>
        </mxCell>
        <mxCell id="DLRbKpXfFb9seyz2tW-k-5" value="Sản Phẩm" style="swimlane;fontStyle=1;align=center;verticalAlign=top;childLayout=stackLayout;horizontal=1;startSize=26;horizontalStack=0;resizeParent=1;resizeParentMax=0;resizeLast=0;collapsible=1;marginBottom=0;whiteSpace=wrap;html=1;" parent="WIyWlLk6GJQsqaUBKTNV-1" vertex="1">
          <mxGeometry x="-330" y="1460" width="160" height="220" as="geometry" />
        </mxCell>
        <mxCell id="DLRbKpXfFb9seyz2tW-k-6" value="-TenSP : string&lt;div&gt;-Gia : double&lt;/div&gt;&lt;div&gt;-ID_SP:int&lt;/div&gt;&lt;div&gt;&lt;br&gt;&lt;/div&gt;&lt;div&gt;+NhapSP():void&lt;/div&gt;&lt;div&gt;+XuatSP():void&lt;/div&gt;&lt;div&gt;GetSP(): string&lt;/div&gt;&lt;div&gt;SetSP():void&lt;/div&gt;&lt;div&gt;GetGia():int&lt;/div&gt;&lt;div&gt;SetGia():void&lt;/div&gt;&lt;div&gt;Get_IDSP():int&lt;/div&gt;&lt;div&gt;Set_IDSP():int&lt;/div&gt;&lt;div&gt;&lt;br&gt;&lt;/div&gt;" style="text;strokeColor=none;fillColor=none;align=left;verticalAlign=top;spacingLeft=4;spacingRight=4;overflow=hidden;rotatable=0;points=[[0,0.5],[1,0.5]];portConstraint=eastwest;whiteSpace=wrap;html=1;" parent="DLRbKpXfFb9seyz2tW-k-5" vertex="1">
          <mxGeometry y="26" width="160" height="184" as="geometry" />
        </mxCell>
        <mxCell id="DLRbKpXfFb9seyz2tW-k-7" value="" style="line;strokeWidth=1;fillColor=none;align=left;verticalAlign=middle;spacingTop=-1;spacingLeft=3;spacingRight=3;rotatable=0;labelPosition=right;points=[];portConstraint=eastwest;strokeColor=inherit;" parent="DLRbKpXfFb9seyz2tW-k-5" vertex="1">
          <mxGeometry y="210" width="160" height="10" as="geometry" />
        </mxCell>
        <mxCell id="DLRbKpXfFb9seyz2tW-k-10" value="Phiếu Nhập&lt;div&gt;&lt;br&gt;&lt;/div&gt;" style="swimlane;fontStyle=1;align=center;verticalAlign=top;childLayout=stackLayout;horizontal=1;startSize=26;horizontalStack=0;resizeParent=1;resizeParentMax=0;resizeLast=0;collapsible=1;marginBottom=0;whiteSpace=wrap;html=1;" parent="WIyWlLk6GJQsqaUBKTNV-1" vertex="1">
          <mxGeometry x="-330" y="810" width="190" height="204" as="geometry" />
        </mxCell>
        <mxCell id="DLRbKpXfFb9seyz2tW-k-11" value="&lt;br&gt;&lt;div&gt;-Ngay:date&lt;/div&gt;&lt;div&gt;&lt;div&gt;-DanhSachSP:List&amp;lt;ChiTienPhieu&lt;/div&gt;&lt;div&gt;&amp;gt;&lt;/div&gt;&lt;/div&gt;&lt;div&gt;+TaoPhieu():void&lt;/div&gt;&lt;div&gt;+TinhGiaNhap():void&lt;/div&gt;&lt;div&gt;+GetDate():void&lt;/div&gt;&lt;div&gt;+SetDate():void&lt;/div&gt;" style="text;strokeColor=none;fillColor=none;align=left;verticalAlign=top;spacingLeft=4;spacingRight=4;overflow=hidden;rotatable=0;points=[[0,0.5],[1,0.5]];portConstraint=eastwest;whiteSpace=wrap;html=1;" parent="DLRbKpXfFb9seyz2tW-k-10" vertex="1">
          <mxGeometry y="26" width="190" height="134" as="geometry" />
        </mxCell>
        <mxCell id="DLRbKpXfFb9seyz2tW-k-12" value="" style="line;strokeWidth=1;fillColor=none;align=left;verticalAlign=middle;spacingTop=-1;spacingLeft=3;spacingRight=3;rotatable=0;labelPosition=right;points=[];portConstraint=eastwest;strokeColor=inherit;" parent="DLRbKpXfFb9seyz2tW-k-10" vertex="1">
          <mxGeometry y="160" width="190" height="44" as="geometry" />
        </mxCell>
        <mxCell id="DLRbKpXfFb9seyz2tW-k-14" value="Phiếu xuất&lt;div&gt;&lt;br&gt;&lt;/div&gt;" style="swimlane;fontStyle=1;align=center;verticalAlign=top;childLayout=stackLayout;horizontal=1;startSize=26;horizontalStack=0;resizeParent=1;resizeParentMax=0;resizeLast=0;collapsible=1;marginBottom=0;whiteSpace=wrap;html=1;" parent="WIyWlLk6GJQsqaUBKTNV-1" vertex="1">
          <mxGeometry x="-600" y="820" width="210" height="158" as="geometry" />
        </mxCell>
        <mxCell id="DLRbKpXfFb9seyz2tW-k-15" value="&lt;br&gt;&lt;div&gt;&lt;div&gt;-Ngay:date&lt;/div&gt;&lt;div&gt;-&lt;span style=&quot;background-color: transparent; color: light-dark(rgb(0, 0, 0), rgb(255, 255, 255));&quot;&gt;-DanhSachSP:List&amp;lt;ChiTienPhieu&lt;/span&gt;&lt;/div&gt;&lt;div&gt;&lt;span style=&quot;background-color: transparent; color: light-dark(rgb(0, 0, 0), rgb(255, 255, 255));&quot;&gt;&amp;gt;&lt;/span&gt;&lt;/div&gt;&lt;div&gt;&lt;span style=&quot;background-color: transparent; color: light-dark(rgb(0, 0, 0), rgb(255, 255, 255));&quot;&gt;+TaoPhieu():void&lt;/span&gt;&lt;/div&gt;&lt;div&gt;+TinhGiaXuat():void&lt;/div&gt;&lt;div&gt;+GetDate():void&lt;/div&gt;&lt;div&gt;+SetDate():void&lt;/div&gt;&lt;/div&gt;" style="text;strokeColor=none;fillColor=none;align=left;verticalAlign=top;spacingLeft=4;spacingRight=4;overflow=hidden;rotatable=0;points=[[0,0.5],[1,0.5]];portConstraint=eastwest;whiteSpace=wrap;html=1;" parent="DLRbKpXfFb9seyz2tW-k-14" vertex="1">
          <mxGeometry y="26" width="210" height="124" as="geometry" />
        </mxCell>
        <mxCell id="DLRbKpXfFb9seyz2tW-k-16" value="" style="line;strokeWidth=1;fillColor=none;align=left;verticalAlign=middle;spacingTop=-1;spacingLeft=3;spacingRight=3;rotatable=0;labelPosition=right;points=[];portConstraint=eastwest;strokeColor=inherit;" parent="DLRbKpXfFb9seyz2tW-k-14" vertex="1">
          <mxGeometry y="150" width="210" height="8" as="geometry" />
        </mxCell>
        <mxCell id="DLRbKpXfFb9seyz2tW-k-23" value="name" style="endArrow=block;endFill=1;html=1;edgeStyle=orthogonalEdgeStyle;align=left;verticalAlign=top;rounded=0;entryX=1;entryY=0.5;entryDx=0;entryDy=0;exitX=1;exitY=0.5;exitDx=0;exitDy=0;" parent="WIyWlLk6GJQsqaUBKTNV-1" source="DLRbKpXfFb9seyz2tW-k-1" target="RzAZ1FQXElwhh7SouEmg-10" edge="1">
          <mxGeometry x="-1" relative="1" as="geometry">
            <mxPoint x="150" y="570" as="sourcePoint" />
            <mxPoint x="310" y="570" as="targetPoint" />
            <Array as="points">
              <mxPoint x="130" y="850" />
              <mxPoint x="730" y="850" />
              <mxPoint x="730" y="410" />
              <mxPoint x="650" y="410" />
              <mxPoint x="650" y="416" />
            </Array>
          </mxGeometry>
        </mxCell>
        <mxCell id="DLRbKpXfFb9seyz2tW-k-24" value="1" style="edgeLabel;resizable=0;html=1;align=left;verticalAlign=bottom;" parent="DLRbKpXfFb9seyz2tW-k-23" connectable="0" vertex="1">
          <mxGeometry x="-1" relative="1" as="geometry" />
        </mxCell>
        <mxCell id="p7wuB7c4HEwAIhUUmAOL-3" value="Tài Khoản" style="swimlane;fontStyle=1;align=center;verticalAlign=top;childLayout=stackLayout;horizontal=1;startSize=26;horizontalStack=0;resizeParent=1;resizeParentMax=0;resizeLast=0;collapsible=1;marginBottom=0;whiteSpace=wrap;html=1;" vertex="1" parent="WIyWlLk6GJQsqaUBKTNV-1">
          <mxGeometry x="-150" y="397" width="160" height="160" as="geometry" />
        </mxCell>
        <mxCell id="p7wuB7c4HEwAIhUUmAOL-4" value="-ID_TK:string&lt;div&gt;-NhanVien:NhanVien&lt;/div&gt;&lt;div&gt;-Password:string&lt;/div&gt;&lt;div&gt;-Accountname:string&lt;/div&gt;" style="text;strokeColor=none;fillColor=none;align=left;verticalAlign=top;spacingLeft=4;spacingRight=4;overflow=hidden;rotatable=0;points=[[0,0.5],[1,0.5]];portConstraint=eastwest;whiteSpace=wrap;html=1;" vertex="1" parent="p7wuB7c4HEwAIhUUmAOL-3">
          <mxGeometry y="26" width="160" height="74" as="geometry" />
        </mxCell>
        <mxCell id="p7wuB7c4HEwAIhUUmAOL-5" value="" style="line;strokeWidth=1;fillColor=none;align=left;verticalAlign=middle;spacingTop=-1;spacingLeft=3;spacingRight=3;rotatable=0;labelPosition=right;points=[];portConstraint=eastwest;strokeColor=inherit;" vertex="1" parent="p7wuB7c4HEwAIhUUmAOL-3">
          <mxGeometry y="100" width="160" height="8" as="geometry" />
        </mxCell>
        <mxCell id="p7wuB7c4HEwAIhUUmAOL-6" value="+ DoiMatKhau(): void&lt;div&gt;+......&lt;/div&gt;" style="text;strokeColor=none;fillColor=none;align=left;verticalAlign=top;spacingLeft=4;spacingRight=4;overflow=hidden;rotatable=0;points=[[0,0.5],[1,0.5]];portConstraint=eastwest;whiteSpace=wrap;html=1;" vertex="1" parent="p7wuB7c4HEwAIhUUmAOL-3">
          <mxGeometry y="108" width="160" height="52" as="geometry" />
        </mxCell>
        <mxCell id="p7wuB7c4HEwAIhUUmAOL-7" value="&lt;i&gt;Chi tiết Phiếu(abs)&lt;/i&gt;" style="swimlane;fontStyle=1;align=center;verticalAlign=top;childLayout=stackLayout;horizontal=1;startSize=26;horizontalStack=0;resizeParent=1;resizeParentMax=0;resizeLast=0;collapsible=1;marginBottom=0;whiteSpace=wrap;html=1;" vertex="1" parent="WIyWlLk6GJQsqaUBKTNV-1">
          <mxGeometry x="-320" y="1240" width="160" height="144" as="geometry" />
        </mxCell>
        <mxCell id="p7wuB7c4HEwAIhUUmAOL-8" value="-SoLuong&lt;div&gt;-SanPham:Sanpham&lt;/div&gt;&lt;div&gt;-Gia:int&lt;/div&gt;" style="text;strokeColor=none;fillColor=none;align=left;verticalAlign=top;spacingLeft=4;spacingRight=4;overflow=hidden;rotatable=0;points=[[0,0.5],[1,0.5]];portConstraint=eastwest;whiteSpace=wrap;html=1;" vertex="1" parent="p7wuB7c4HEwAIhUUmAOL-7">
          <mxGeometry y="26" width="160" height="84" as="geometry" />
        </mxCell>
        <mxCell id="p7wuB7c4HEwAIhUUmAOL-9" value="" style="line;strokeWidth=1;fillColor=none;align=left;verticalAlign=middle;spacingTop=-1;spacingLeft=3;spacingRight=3;rotatable=0;labelPosition=right;points=[];portConstraint=eastwest;strokeColor=inherit;" vertex="1" parent="p7wuB7c4HEwAIhUUmAOL-7">
          <mxGeometry y="110" width="160" height="8" as="geometry" />
        </mxCell>
        <mxCell id="p7wuB7c4HEwAIhUUmAOL-10" value="TinhTien()" style="text;strokeColor=none;fillColor=none;align=left;verticalAlign=top;spacingLeft=4;spacingRight=4;overflow=hidden;rotatable=0;points=[[0,0.5],[1,0.5]];portConstraint=eastwest;whiteSpace=wrap;html=1;" vertex="1" parent="p7wuB7c4HEwAIhUUmAOL-7">
          <mxGeometry y="118" width="160" height="26" as="geometry" />
        </mxCell>
        <mxCell id="p7wuB7c4HEwAIhUUmAOL-13" value="" style="endArrow=diamondThin;endFill=0;endSize=24;html=1;rounded=0;exitX=0.626;exitY=0.024;exitDx=0;exitDy=0;exitPerimeter=0;entryX=0.564;entryY=1.08;entryDx=0;entryDy=0;entryPerimeter=0;" edge="1" parent="WIyWlLk6GJQsqaUBKTNV-1" source="DLRbKpXfFb9seyz2tW-k-5" target="p7wuB7c4HEwAIhUUmAOL-10">
          <mxGeometry width="160" relative="1" as="geometry">
            <mxPoint x="20" y="1020" as="sourcePoint" />
            <mxPoint x="180" y="1020" as="targetPoint" />
            <Array as="points" />
          </mxGeometry>
        </mxCell>
        <mxCell id="p7wuB7c4HEwAIhUUmAOL-14" value="CTHD&lt;div&gt;&lt;br&gt;&lt;/div&gt;" style="swimlane;fontStyle=1;align=center;verticalAlign=top;childLayout=stackLayout;horizontal=1;startSize=26;horizontalStack=0;resizeParent=1;resizeParentMax=0;resizeLast=0;collapsible=1;marginBottom=0;whiteSpace=wrap;html=1;" vertex="1" parent="WIyWlLk6GJQsqaUBKTNV-1">
          <mxGeometry y="1100" width="160" height="86" as="geometry" />
        </mxCell>
        <mxCell id="p7wuB7c4HEwAIhUUmAOL-15" value="+ field: type" style="text;strokeColor=none;fillColor=none;align=left;verticalAlign=top;spacingLeft=4;spacingRight=4;overflow=hidden;rotatable=0;points=[[0,0.5],[1,0.5]];portConstraint=eastwest;whiteSpace=wrap;html=1;" vertex="1" parent="p7wuB7c4HEwAIhUUmAOL-14">
          <mxGeometry y="26" width="160" height="26" as="geometry" />
        </mxCell>
        <mxCell id="p7wuB7c4HEwAIhUUmAOL-16" value="" style="line;strokeWidth=1;fillColor=none;align=left;verticalAlign=middle;spacingTop=-1;spacingLeft=3;spacingRight=3;rotatable=0;labelPosition=right;points=[];portConstraint=eastwest;strokeColor=inherit;" vertex="1" parent="p7wuB7c4HEwAIhUUmAOL-14">
          <mxGeometry y="52" width="160" height="8" as="geometry" />
        </mxCell>
        <mxCell id="p7wuB7c4HEwAIhUUmAOL-17" value="+ TinhTien(): void" style="text;strokeColor=none;fillColor=none;align=left;verticalAlign=top;spacingLeft=4;spacingRight=4;overflow=hidden;rotatable=0;points=[[0,0.5],[1,0.5]];portConstraint=eastwest;whiteSpace=wrap;html=1;" vertex="1" parent="p7wuB7c4HEwAIhUUmAOL-14">
          <mxGeometry y="60" width="160" height="26" as="geometry" />
        </mxCell>
        <mxCell id="p7wuB7c4HEwAIhUUmAOL-18" value="CTPN" style="swimlane;fontStyle=1;align=center;verticalAlign=top;childLayout=stackLayout;horizontal=1;startSize=26;horizontalStack=0;resizeParent=1;resizeParentMax=0;resizeLast=0;collapsible=1;marginBottom=0;whiteSpace=wrap;html=1;" vertex="1" parent="WIyWlLk6GJQsqaUBKTNV-1">
          <mxGeometry x="-300" y="1090" width="160" height="86" as="geometry" />
        </mxCell>
        <mxCell id="p7wuB7c4HEwAIhUUmAOL-19" value="+ field: type" style="text;strokeColor=none;fillColor=none;align=left;verticalAlign=top;spacingLeft=4;spacingRight=4;overflow=hidden;rotatable=0;points=[[0,0.5],[1,0.5]];portConstraint=eastwest;whiteSpace=wrap;html=1;" vertex="1" parent="p7wuB7c4HEwAIhUUmAOL-18">
          <mxGeometry y="26" width="160" height="26" as="geometry" />
        </mxCell>
        <mxCell id="p7wuB7c4HEwAIhUUmAOL-20" value="" style="line;strokeWidth=1;fillColor=none;align=left;verticalAlign=middle;spacingTop=-1;spacingLeft=3;spacingRight=3;rotatable=0;labelPosition=right;points=[];portConstraint=eastwest;strokeColor=inherit;" vertex="1" parent="p7wuB7c4HEwAIhUUmAOL-18">
          <mxGeometry y="52" width="160" height="8" as="geometry" />
        </mxCell>
        <mxCell id="p7wuB7c4HEwAIhUUmAOL-21" value="+ TinhTien(): void" style="text;strokeColor=none;fillColor=none;align=left;verticalAlign=top;spacingLeft=4;spacingRight=4;overflow=hidden;rotatable=0;points=[[0,0.5],[1,0.5]];portConstraint=eastwest;whiteSpace=wrap;html=1;" vertex="1" parent="p7wuB7c4HEwAIhUUmAOL-18">
          <mxGeometry y="60" width="160" height="26" as="geometry" />
        </mxCell>
        <mxCell id="p7wuB7c4HEwAIhUUmAOL-22" value="CTPX&lt;div&gt;&lt;br&gt;&lt;/div&gt;" style="swimlane;fontStyle=1;align=center;verticalAlign=top;childLayout=stackLayout;horizontal=1;startSize=26;horizontalStack=0;resizeParent=1;resizeParentMax=0;resizeLast=0;collapsible=1;marginBottom=0;whiteSpace=wrap;html=1;" vertex="1" parent="WIyWlLk6GJQsqaUBKTNV-1">
          <mxGeometry x="-590" y="1083" width="160" height="86" as="geometry" />
        </mxCell>
        <mxCell id="p7wuB7c4HEwAIhUUmAOL-23" value="+ field: type" style="text;strokeColor=none;fillColor=none;align=left;verticalAlign=top;spacingLeft=4;spacingRight=4;overflow=hidden;rotatable=0;points=[[0,0.5],[1,0.5]];portConstraint=eastwest;whiteSpace=wrap;html=1;" vertex="1" parent="p7wuB7c4HEwAIhUUmAOL-22">
          <mxGeometry y="26" width="160" height="26" as="geometry" />
        </mxCell>
        <mxCell id="p7wuB7c4HEwAIhUUmAOL-24" value="" style="line;strokeWidth=1;fillColor=none;align=left;verticalAlign=middle;spacingTop=-1;spacingLeft=3;spacingRight=3;rotatable=0;labelPosition=right;points=[];portConstraint=eastwest;strokeColor=inherit;" vertex="1" parent="p7wuB7c4HEwAIhUUmAOL-22">
          <mxGeometry y="52" width="160" height="8" as="geometry" />
        </mxCell>
        <mxCell id="p7wuB7c4HEwAIhUUmAOL-25" value="+ TinhTien(): void" style="text;strokeColor=none;fillColor=none;align=left;verticalAlign=top;spacingLeft=4;spacingRight=4;overflow=hidden;rotatable=0;points=[[0,0.5],[1,0.5]];portConstraint=eastwest;whiteSpace=wrap;html=1;" vertex="1" parent="p7wuB7c4HEwAIhUUmAOL-22">
          <mxGeometry y="60" width="160" height="26" as="geometry" />
        </mxCell>
        <mxCell id="p7wuB7c4HEwAIhUUmAOL-26" value="Extends" style="endArrow=block;endSize=16;endFill=0;html=1;rounded=0;entryX=1;entryY=0.714;entryDx=0;entryDy=0;entryPerimeter=0;" edge="1" parent="WIyWlLk6GJQsqaUBKTNV-1" source="p7wuB7c4HEwAIhUUmAOL-17" target="p7wuB7c4HEwAIhUUmAOL-8">
          <mxGeometry width="160" relative="1" as="geometry">
            <mxPoint y="1250" as="sourcePoint" />
            <mxPoint x="-170" y="1326" as="targetPoint" />
            <Array as="points">
              <mxPoint x="80" y="1326" />
            </Array>
          </mxGeometry>
        </mxCell>
        <mxCell id="p7wuB7c4HEwAIhUUmAOL-27" value="Extends" style="endArrow=block;endSize=16;endFill=0;html=1;rounded=0;exitX=0.481;exitY=1.031;exitDx=0;exitDy=0;exitPerimeter=0;entryX=0.563;entryY=0;entryDx=0;entryDy=0;entryPerimeter=0;" edge="1" parent="WIyWlLk6GJQsqaUBKTNV-1" source="p7wuB7c4HEwAIhUUmAOL-21" target="p7wuB7c4HEwAIhUUmAOL-7">
          <mxGeometry width="160" relative="1" as="geometry">
            <mxPoint y="850" as="sourcePoint" />
            <mxPoint x="160" y="850" as="targetPoint" />
          </mxGeometry>
        </mxCell>
        <mxCell id="p7wuB7c4HEwAIhUUmAOL-28" value="Extends" style="endArrow=block;endSize=16;endFill=0;html=1;rounded=0;exitX=0.451;exitY=1.098;exitDx=0;exitDy=0;exitPerimeter=0;entryX=0;entryY=0.5;entryDx=0;entryDy=0;" edge="1" parent="WIyWlLk6GJQsqaUBKTNV-1" source="p7wuB7c4HEwAIhUUmAOL-25" target="p7wuB7c4HEwAIhUUmAOL-8">
          <mxGeometry width="160" relative="1" as="geometry">
            <mxPoint x="-70" y="1310" as="sourcePoint" />
            <mxPoint x="90" y="1310" as="targetPoint" />
            <Array as="points">
              <mxPoint x="-520" y="1310" />
            </Array>
          </mxGeometry>
        </mxCell>
        <mxCell id="p7wuB7c4HEwAIhUUmAOL-29" value="" style="endArrow=diamondThin;endFill=1;endSize=24;html=1;rounded=0;exitX=0.5;exitY=0;exitDx=0;exitDy=0;entryX=0.627;entryY=1.077;entryDx=0;entryDy=0;entryPerimeter=0;" edge="1" parent="WIyWlLk6GJQsqaUBKTNV-1" source="p7wuB7c4HEwAIhUUmAOL-14" target="DLRbKpXfFb9seyz2tW-k-3">
          <mxGeometry width="160" relative="1" as="geometry">
            <mxPoint x="-10" y="1190" as="sourcePoint" />
            <mxPoint x="150" y="1190" as="targetPoint" />
          </mxGeometry>
        </mxCell>
        <mxCell id="p7wuB7c4HEwAIhUUmAOL-30" value="" style="endArrow=diamondThin;endFill=1;endSize=24;html=1;rounded=0;exitX=0.5;exitY=0;exitDx=0;exitDy=0;" edge="1" parent="WIyWlLk6GJQsqaUBKTNV-1" source="p7wuB7c4HEwAIhUUmAOL-18">
          <mxGeometry width="160" relative="1" as="geometry">
            <mxPoint x="-10" y="1190" as="sourcePoint" />
            <mxPoint x="-220" y="1014" as="targetPoint" />
          </mxGeometry>
        </mxCell>
        <mxCell id="p7wuB7c4HEwAIhUUmAOL-31" value="" style="endArrow=diamondThin;endFill=1;endSize=24;html=1;rounded=0;exitX=0.5;exitY=0;exitDx=0;exitDy=0;entryX=0.448;entryY=0.875;entryDx=0;entryDy=0;entryPerimeter=0;" edge="1" parent="WIyWlLk6GJQsqaUBKTNV-1" source="p7wuB7c4HEwAIhUUmAOL-22" target="DLRbKpXfFb9seyz2tW-k-16">
          <mxGeometry width="160" relative="1" as="geometry">
            <mxPoint x="-10" y="1190" as="sourcePoint" />
            <mxPoint x="150" y="1190" as="targetPoint" />
          </mxGeometry>
        </mxCell>
        <mxCell id="p7wuB7c4HEwAIhUUmAOL-32" value="Use" style="endArrow=open;endSize=12;dashed=1;html=1;rounded=0;exitX=-0.006;exitY=-0.04;exitDx=0;exitDy=0;exitPerimeter=0;" edge="1" parent="WIyWlLk6GJQsqaUBKTNV-1" source="RzAZ1FQXElwhh7SouEmg-19">
          <mxGeometry width="160" relative="1" as="geometry">
            <mxPoint x="20" y="570" as="sourcePoint" />
            <mxPoint x="-510" y="810" as="targetPoint" />
            <Array as="points">
              <mxPoint x="-510" y="710" />
            </Array>
          </mxGeometry>
        </mxCell>
        <mxCell id="p7wuB7c4HEwAIhUUmAOL-33" value="Use" style="endArrow=open;endSize=12;dashed=1;html=1;rounded=0;exitX=-0.019;exitY=0.34;exitDx=0;exitDy=0;exitPerimeter=0;entryX=0.453;entryY=0;entryDx=0;entryDy=0;entryPerimeter=0;" edge="1" parent="WIyWlLk6GJQsqaUBKTNV-1" source="RzAZ1FQXElwhh7SouEmg-19" target="DLRbKpXfFb9seyz2tW-k-10">
          <mxGeometry width="160" relative="1" as="geometry">
            <mxPoint x="20" y="570" as="sourcePoint" />
            <mxPoint x="180" y="570" as="targetPoint" />
            <Array as="points">
              <mxPoint x="-244" y="727" />
            </Array>
          </mxGeometry>
        </mxCell>
      </root>
    </mxGraphModel>
  </diagram>
</mxfile>
